<svg width="13" height="19" viewBox="0 0 13 19" fill="none" xmlns="http://www.w3.org/2000/svg">
<path d="M12.4992 9.14053C12.8265 8.34117 12.9966 7.48333 12.9999 6.61628C13.0033 5.74923 12.8396 4.89005 12.5184 4.08809C12.1972 3.28613 11.7248 2.55719 11.1283 1.94313C10.5319 1.32908 9.82303 0.842006 9.04259 0.509895C8.26307 0.173356 7.4259 0 6.58021 0C5.73452 0 4.89735 0.173356 4.11784 0.509895C2.7044 1.06609 1.52819 2.11739 0.797273 3.47781C0.0663524 4.83823 -0.172177 6.42012 0.123879 7.94364C0.419935 9.46715 1.2315 10.8341 2.41501 11.8027C3.59851 12.7714 5.0777 13.2792 6.5909 13.2364C7.16436 13.2353 7.735 13.1541 8.28713 12.9951L10.5036 18.5026C10.5668 18.6519 10.6715 18.7787 10.8046 18.8672C10.9377 18.9557 11.0934 19.0019 11.252 18.9999C11.3592 19.0013 11.4657 18.9814 11.5655 18.9414C11.7259 18.8649 11.858 18.7377 11.9427 18.5784C12.0274 18.4191 12.06 18.2362 12.0359 18.0564V17.954C12.0383 17.937 12.0383 17.9198 12.0359 17.9028L9.79805 12.366C11.0214 11.6272 11.9714 10.4928 12.4992 9.14053ZM2.11515 8.5042C1.8723 7.90298 1.74731 7.25853 1.74735 6.6077C1.7474 5.95687 1.87246 5.31243 2.11538 4.71125C2.35831 4.11006 2.71434 3.56392 3.16311 3.10405C3.61188 2.64419 4.14459 2.27963 4.73076 2.03123C5.31867 1.77733 5.94974 1.6454 6.58758 1.64304C7.22542 1.64069 7.8574 1.76795 8.44707 2.01749C9.03675 2.26703 9.57245 2.63392 10.0233 3.09698C10.4741 3.56005 10.8311 4.11013 11.0738 4.7155C11.3166 5.31672 11.4416 5.96117 11.4416 6.612C11.4415 7.26283 11.3165 7.90727 11.0735 8.50846C10.8306 9.10965 10.4746 9.65579 10.0258 10.1157C9.57705 10.5755 9.04435 10.9401 8.45818 11.1885C7.87183 11.4378 7.24335 11.5662 6.60865 11.5663C5.97395 11.5663 5.34546 11.438 4.75907 11.1888C4.17269 10.9395 3.6399 10.5741 3.19114 10.1135C2.74238 9.65287 2.38644 9.10603 2.14366 8.5042H2.11515Z" fill="#313131"/>
</svg>
